<svg width="500" height="400" viewBox="0 0 500 400" fill="none" xmlns="http://www.w3.org/2000/svg">
  <!-- Background elements -->
  <rect width="500" height="400" fill="none"/>
  
  <!-- Sun -->
  <circle cx="400" cy="80" r="40" fill="#FFC107"/>
  <circle cx="400" cy="80" r="50" fill="#FFC107" fill-opacity="0.3"/>
  <circle cx="400" cy="80" r="60" fill="#FFC107" fill-opacity="0.1"/>
  
  <!-- Mountains -->
  <path d="M0 250L100 150L200 220L300 120L400 180L500 100L500 400H0V250Z" fill="#6B7280" fill-opacity="0.2"/>
  <path d="M0 280L80 200L160 240L240 160L320 220L400 140L500 220L500 400H0V280Z" fill="#4B5563" fill-opacity="0.3"/>
  <path d="M0 320L120 260L200 300L280 240L360 280L440 220L500 260L500 400H0V320Z" fill="#374151" fill-opacity="0.4"/>
  
  <!-- Road -->
  <path d="M200 400V300C200 280 300 280 300 300V400" fill="#9CA3AF"/>
  <rect x="220" y="320" width="60" height="10" fill="white"/>
  <rect x="220" y="350" width="60" height="10" fill="white"/>
  <rect x="220" y="380" width="60" height="10" fill="white"/>
  
  <!-- Lost traveler -->
  <circle cx="250" cy="270" r="20" fill="#F15D30"/>
  <rect x="240" y="290" width="20" height="30" fill="#F15D30"/>
  <rect x="235" y="300" width="10" height="25" rx="5" transform="rotate(-30 235 300)" fill="#F15D30"/>
  <rect x="255" y="300" width="10" height="25" rx="5" transform="rotate(30 255 300)" fill="#F15D30"/>
  <rect x="240" y="320" width="10" height="25" rx="5" transform="rotate(-20 240 320)" fill="#F15D30"/>
  <rect x="250" y="320" width="10" height="25" rx="5" transform="rotate(20 250 320)" fill="#F15D30"/>
  
  <!-- Map -->
  <rect x="290" y="260" width="40" height="30" rx="2" fill="white" stroke="#F15D30" stroke-width="2"/>
  <path d="M295 265L305 275L315 265L325 275" stroke="#F15D30" stroke-width="1"/>
  <path d="M295 270H325" stroke="#F15D30" stroke-width="1"/>
  <path d="M295 280L305 270L315 280L325 270" stroke="#F15D30" stroke-width="1"/>
  
  <!-- Question mark -->
  <text x="180" y="270" font-family="Arial" font-size="40" font-weight="bold" fill="#F15D30">?</text>
  
  <!-- Compass -->
  <circle cx="180" cy="320" r="15" fill="white" stroke="#F15D30" stroke-width="2"/>
  <path d="M180 305V310" stroke="#F15D30" stroke-width="2"/>
  <path d="M180 330V335" stroke="#F15D30" stroke-width="2"/>
  <path d="M165 320H170" stroke="#F15D30" stroke-width="2"/>
  <path d="M190 320H195" stroke="#F15D30" stroke-width="2"/>
  <path d="M175 315L185 325" stroke="#F15D30" stroke-width="2"/>
  <path d="M175 325L185 315" stroke="#F15D30" stroke-width="2"/>
  
  <!-- 404 Text -->
  <text x="150" y="200" font-family="Arial" font-size="24" font-weight="bold" fill="#F15D30">Page Not Found</text>
</svg>
